<svg width="1280" height="832" viewBox="0 0 1280 832" fill="none" xmlns="http://www.w3.org/2000/svg">
<g clip-path="url(#clip0_16_20)">
<rect width="1280" height="832" fill="url(#paint0_radial_16_20)"/>
<path d="M664.519 456.223C567.803 478.053 745.632 244.233 478.133 165.228C381.374 136.65 568.655 127.107 718.943 10.985C869.231 -105.137 954.326 272.433 844.343 316.567C734.361 360.701 749.471 437.048 664.519 456.223Z" fill="url(#paint1_linear_16_20)"/>
<path d="M665.294 407.402C585.542 348.493 795.329 437.327 680.219 183.266C638.581 91.3679 851.648 119.688 1037.77 157.485C1223.9 195.282 993.837 506.526 888.536 452.161C783.235 397.796 735.344 459.145 665.294 407.402Z" fill="url(#paint2_linear_16_20)"/>
<path d="M644.312 412.198C630.813 510.424 608.279 283.721 440.424 506.482C379.708 587.058 302.485 386.468 246.489 204.988C190.494 23.5072 573.913 76.3254 576.644 194.801C579.374 313.276 656.168 325.92 644.312 412.198Z" fill="url(#paint3_linear_16_20)"/>
<path d="M994.5 348C1054.82 332.156 1032.5 398 1122.83 456.229C1179.75 492.917 1098.05 572.829 1012.24 653.065C926.425 733.301 835.114 478.781 901.848 447.699C968.582 416.618 941.517 361.916 994.5 348Z" fill="url(#paint4_linear_16_20)"/>
<path d="M372.755 441.876C364.45 377.541 423.271 509.425 505.798 321.09C535.649 252.966 630.003 351.948 705.124 445.788C780.245 539.629 487.239 625.826 463.179 554.106C439.12 482.386 380.051 498.385 372.755 441.876Z" fill="url(#paint5_linear_16_20)"/>
<path d="M390.975 363.769C438.703 313.385 448.389 518.855 650.523 460.701C723.639 439.666 614.751 518.163 581.941 644.341C549.13 770.519 307.514 583.704 352.075 515.16C396.635 446.616 349.052 408.024 390.975 363.769Z" fill="url(#paint6_linear_16_20)"/>
<path d="M552.251 319.831C586.033 226.615 686.934 204.73 941 319.831C1070.5 378.5 912.941 919.769 718 609.499C523.059 299.23 550.705 662.999 572.861 546.581C595.018 430.164 522.578 401.709 552.251 319.831Z" fill="url(#paint7_linear_16_20)"/>
<path d="M441.777 322.232V340.543C441.777 367.398 438.197 391.568 431.035 413.053C423.874 434.374 413.701 452.522 400.518 467.496C387.334 482.47 371.628 493.945 353.398 501.92C335.169 509.895 314.906 513.883 292.607 513.883C270.635 513.883 250.452 509.895 232.061 501.92C213.831 493.945 198.044 482.47 184.697 467.496C171.351 452.522 161.016 434.374 153.691 413.053C146.367 391.568 142.705 367.398 142.705 340.543V322.232C142.705 295.214 146.367 271.044 153.691 249.723C161.016 228.401 171.27 210.253 184.453 195.279C197.637 180.143 213.343 168.587 231.572 160.611C249.964 152.636 270.146 148.648 292.119 148.648C314.417 148.648 334.681 152.636 352.91 160.611C371.139 168.587 386.846 180.143 400.029 195.279C413.376 210.253 423.63 228.401 430.791 249.723C438.115 271.044 441.777 295.214 441.777 322.232ZM373.906 340.543V321.744C373.906 302.376 372.116 285.367 368.535 270.719C364.954 255.908 359.665 243.456 352.666 233.365C345.667 223.274 337.041 215.706 326.787 210.66C316.533 205.452 304.977 202.848 292.119 202.848C279.098 202.848 267.542 205.452 257.451 210.66C247.523 215.706 239.059 223.274 232.061 233.365C225.062 243.456 219.691 255.908 215.947 270.719C212.367 285.367 210.576 302.376 210.576 321.744V340.543C210.576 359.749 212.367 376.757 215.947 391.568C219.691 406.38 225.062 418.912 232.061 429.166C239.222 439.257 247.848 446.907 257.939 452.115C268.031 457.324 279.587 459.928 292.607 459.928C305.628 459.928 317.184 457.324 327.275 452.115C337.367 446.907 345.83 439.257 352.666 429.166C359.665 418.912 364.954 406.38 368.535 391.568C372.116 376.757 373.906 359.749 373.906 340.543Z" fill="url(#paint8_linear_16_20)" fill-opacity="0.9"/>
<path d="M441.777 689.232V707.543C441.777 734.398 438.197 758.568 431.035 780.053C423.874 801.374 413.701 819.522 400.518 834.496C387.334 849.47 371.628 860.945 353.398 868.92C335.169 876.895 314.906 880.883 292.607 880.883C270.635 880.883 250.452 876.895 232.061 868.92C213.831 860.945 198.044 849.47 184.697 834.496C171.351 819.522 161.016 801.374 153.691 780.053C146.367 758.568 142.705 734.398 142.705 707.543V689.232C142.705 662.214 146.367 638.044 153.691 616.723C161.016 595.401 171.27 577.253 184.453 562.279C197.637 547.143 213.343 535.587 231.572 527.611C249.964 519.636 270.146 515.648 292.119 515.648C314.417 515.648 334.681 519.636 352.91 527.611C371.139 535.587 386.846 547.143 400.029 562.279C413.376 577.253 423.63 595.401 430.791 616.723C438.115 638.044 441.777 662.214 441.777 689.232ZM373.906 707.543V688.744C373.906 669.376 372.116 652.367 368.535 637.719C364.954 622.908 359.665 610.456 352.666 600.365C345.667 590.274 337.041 582.706 326.787 577.66C316.533 572.452 304.977 569.848 292.119 569.848C279.098 569.848 267.542 572.452 257.451 577.66C247.523 582.706 239.059 590.274 232.061 600.365C225.062 610.456 219.691 622.908 215.947 637.719C212.367 652.367 210.576 669.376 210.576 688.744V707.543C210.576 726.749 212.367 743.757 215.947 758.568C219.691 773.38 225.062 785.912 232.061 796.166C239.222 806.257 247.848 813.907 257.939 819.115C268.031 824.324 279.587 826.928 292.607 826.928C305.628 826.928 317.184 824.324 327.275 819.115C337.367 813.907 345.83 806.257 352.666 796.166C359.665 785.912 364.954 773.38 368.535 758.568C372.116 743.757 373.906 726.749 373.906 707.543Z" fill="url(#paint9_linear_16_20)"/>
<path d="M441.777 689.232V707.543C441.777 734.398 438.197 758.568 431.035 780.053C423.874 801.374 413.701 819.522 400.518 834.496C387.334 849.47 371.628 860.945 353.398 868.92C335.169 876.895 314.906 880.883 292.607 880.883C270.635 880.883 250.452 876.895 232.061 868.92C213.831 860.945 198.044 849.47 184.697 834.496C171.351 819.522 161.016 801.374 153.691 780.053C146.367 758.568 142.705 734.398 142.705 707.543V689.232C142.705 662.214 146.367 638.044 153.691 616.723C161.016 595.401 171.27 577.253 184.453 562.279C197.637 547.143 213.343 535.587 231.572 527.611C249.964 519.636 270.146 515.648 292.119 515.648C314.417 515.648 334.681 519.636 352.91 527.611C371.139 535.587 386.846 547.143 400.029 562.279C413.376 577.253 423.63 595.401 430.791 616.723C438.115 638.044 441.777 662.214 441.777 689.232ZM373.906 707.543V688.744C373.906 669.376 372.116 652.367 368.535 637.719C364.954 622.908 359.665 610.456 352.666 600.365C345.667 590.274 337.041 582.706 326.787 577.66C316.533 572.452 304.977 569.848 292.119 569.848C279.098 569.848 267.542 572.452 257.451 577.66C247.523 582.706 239.059 590.274 232.061 600.365C225.062 610.456 219.691 622.908 215.947 637.719C212.367 652.367 210.576 669.376 210.576 688.744V707.543C210.576 726.749 212.367 743.757 215.947 758.568C219.691 773.38 225.062 785.912 232.061 796.166C239.222 806.257 247.848 813.907 257.939 819.115C268.031 824.324 279.587 826.928 292.607 826.928C305.628 826.928 317.184 824.324 327.275 819.115C337.367 813.907 345.83 806.257 352.666 796.166C359.665 785.912 364.954 773.38 368.535 758.568C372.116 743.757 373.906 726.749 373.906 707.543Z" fill="url(#paint10_linear_16_20)"/>
</g>
<defs>
<radialGradient id="paint0_radial_16_20" cx="0" cy="0" r="1" gradientUnits="userSpaceOnUse" gradientTransform="translate(640 416) rotate(90) scale(416 640)">
<stop offset="0.598958" stop-color="#111459"/>
<stop offset="1" stop-color="#081733"/>
</radialGradient>
<linearGradient id="paint1_linear_16_20" x1="865.485" y1="254.89" x2="572.734" y2="121.781" gradientUnits="userSpaceOnUse">
<stop offset="0.00763638" stop-color="#1671F7"/>
<stop offset="1" stop-color="#021772"/>
</linearGradient>
<linearGradient id="paint2_linear_16_20" x1="949.027" y1="427.834" x2="858.345" y2="119.292" gradientUnits="userSpaceOnUse">
<stop offset="0.00763638" stop-color="#1671F7"/>
<stop offset="1" stop-color="#021772"/>
</linearGradient>
<linearGradient id="paint3_linear_16_20" x1="526.308" y1="153.36" x2="298.929" y2="380.78" gradientUnits="userSpaceOnUse">
<stop offset="0.00763638" stop-color="#1671F7"/>
<stop offset="1" stop-color="#021772"/>
</linearGradient>
<linearGradient id="paint4_linear_16_20" x1="894.147" y1="489.665" x2="1103.52" y2="550.207" gradientUnits="userSpaceOnUse">
<stop offset="0.00763638" stop-color="#1671F7"/>
<stop offset="1" stop-color="#021772"/>
</linearGradient>
<linearGradient id="paint5_linear_16_20" x1="508.065" y1="563.925" x2="582.318" y2="337.487" gradientUnits="userSpaceOnUse">
<stop offset="0.00763638" stop-color="#1671F7"/>
<stop offset="1" stop-color="#021772"/>
</linearGradient>
<linearGradient id="paint6_linear_16_20" x1="370.271" y1="559.324" x2="604.889" y2="489.185" gradientUnits="userSpaceOnUse">
<stop offset="0.00763638" stop-color="#1671F7"/>
<stop offset="1" stop-color="#021772"/>
</linearGradient>
<linearGradient id="paint7_linear_16_20" x1="613.395" y1="597.65" x2="883.382" y2="422.926" gradientUnits="userSpaceOnUse">
<stop offset="0.00763638" stop-color="#1671F7"/>
<stop offset="1" stop-color="#021772"/>
</linearGradient>
<linearGradient id="paint8_linear_16_20" x1="125" y1="480.541" x2="521.607" y2="193.257" gradientUnits="userSpaceOnUse">
<stop stop-color="#3C13AF"/>
<stop offset="0.765625" stop-color="#12D1DD"/>
</linearGradient>
<linearGradient id="paint9_linear_16_20" x1="41.5" y1="489.648" x2="494.15" y2="934.604" gradientUnits="userSpaceOnUse">
<stop offset="0.0772809" stop-color="#3C13AF"/>
<stop offset="1" stop-color="#12D1DD"/>
</linearGradient>
<linearGradient id="paint10_linear_16_20" x1="282" y1="574.5" x2="281" y2="830" gradientUnits="userSpaceOnUse">
<stop stop-opacity="0"/>
<stop offset="1" stop-color="#081733"/>
</linearGradient>
<clipPath id="clip0_16_20">
<rect width="1280" height="832" fill="white"/>
</clipPath>
</defs>
</svg>
