<svg width="25" height="19" viewBox="0 0 17 16" fill="none" xmlns="http://www.w3.org/2000/svg">
<path d="M7.16146 15.5088L0.286458 8.63381C0.182292 8.52965 0.108333 8.4168 0.0645831 8.29527C0.0215276 8.17374 0 8.04354 0 7.90465C0 7.76576 0.0215276 7.63555 0.0645831 7.51402C0.108333 7.39249 0.182292 7.27965 0.286458 7.17548L7.16146 0.30048C7.35243 0.109508 7.59097 0.00950855 7.87708 0.000480771C8.16389 -0.00785256 8.41146 0.0921471 8.61979 0.30048C8.82812 0.491453 8.93681 0.729995 8.94583 1.01611C8.95417 1.30291 8.85417 1.55048 8.64583 1.75881L3.54167 6.86298H15.1823C15.4774 6.86298 15.725 6.96263 15.925 7.16194C16.1243 7.36194 16.224 7.60951 16.224 7.90465C16.224 8.19979 16.1243 8.44701 15.925 8.64631C15.725 8.84631 15.4774 8.94631 15.1823 8.94631H3.54167L8.64583 14.0505C8.83681 14.2415 8.93681 14.4845 8.94583 14.7796C8.95417 15.0748 8.85417 15.3178 8.64583 15.5088C8.45486 15.7171 8.21181 15.8213 7.91667 15.8213C7.62153 15.8213 7.36979 15.7171 7.16146 15.5088Z" fill="white"/>
</svg>
