<svg width="18" height="12" viewBox="0 0 18 12" fill="none" xmlns="http://www.w3.org/2000/svg">
<path d="M8.8 1.6C10.271 1.59511 11.7135 2.00543 12.9617 2.78378C14.2099 3.56214 15.2131 4.67693 15.856 6C14.536 8.696 11.84 10.4 8.8 10.4C5.76 10.4 3.064 8.696 1.744 6C2.38689 4.67693 3.39011 3.56214 4.6383 2.78378C5.8865 2.00543 7.32901 1.59511 8.8 1.6ZM8.8 0C4.8 0 1.384 2.488 0 6C1.384 9.512 4.8 12 8.8 12C12.8 12 16.216 9.512 17.6 6C16.216 2.488 12.8 0 8.8 0ZM8.8 4C9.33043 4 9.83914 4.21071 10.2142 4.58579C10.5893 4.96086 10.8 5.46957 10.8 6C10.8 6.53043 10.5893 7.03914 10.2142 7.41421C9.83914 7.78929 9.33043 8 8.8 8C8.26957 8 7.76086 7.78929 7.38579 7.41421C7.01071 7.03914 6.8 6.53043 6.8 6C6.8 5.46957 7.01071 4.96086 7.38579 4.58579C7.76086 4.21071 8.26957 4 8.8 4ZM8.8 2.4C6.816 2.4 5.2 4.016 5.2 6C5.2 7.984 6.816 9.6 8.8 9.6C10.784 9.6 12.4 7.984 12.4 6C12.4 4.016 10.784 2.4 8.8 2.4Z" fill="#081733" fill-opacity="0.3"/>
</svg>
