<svg width="44" height="44" viewBox="0 0 44 44" fill="none" xmlns="http://www.w3.org/2000/svg">
<path d="M11.9166 36.6667C9.13609 36.6667 6.7607 35.7042 4.79048 33.7792C2.81904 31.8542 1.83331 29.5014 1.83331 26.7208C1.83331 24.3375 2.55137 22.2139 3.98748 20.35C5.42359 18.4861 7.30276 17.2944 9.62498 16.775C10.1444 14.575 11.443 12.4819 13.5208 10.4958C15.5986 8.50972 17.8139 7.51666 20.1666 7.51666C21.175 7.51666 22.0385 7.87538 22.7571 8.59283C23.4746 9.3115 23.8333 10.175 23.8333 11.1833V22.275L26.7666 19.4333L29.3333 22L22 29.3333L14.6666 22L17.2333 19.4333L20.1666 22.275V11.1833C17.8444 11.6111 16.0416 12.7337 14.7583 14.5512C13.475 16.3698 12.8333 18.2417 12.8333 20.1667H11.9166C10.1444 20.1667 8.63193 20.7931 7.37915 22.0458C6.12637 23.2986 5.49998 24.8111 5.49998 26.5833C5.49998 28.3556 6.12637 29.8681 7.37915 31.1208C8.63193 32.3736 10.1444 33 11.9166 33H33.9166C35.2 33 36.2847 32.5569 37.1708 31.6708C38.0569 30.7847 38.5 29.7 38.5 28.4167C38.5 27.1333 38.0569 26.0486 37.1708 25.1625C36.2847 24.2764 35.2 23.8333 33.9166 23.8333H31.1666V20.1667C31.1666 18.7 30.8305 17.3323 30.1583 16.0637C29.4861 14.7962 28.6 13.7194 27.5 12.8333V8.57083C29.7611 9.64027 31.5486 11.2218 32.8625 13.3155C34.1764 15.4079 34.8333 17.6917 34.8333 20.1667C36.9417 20.4111 38.6913 21.3198 40.0821 22.8928C41.4718 24.4671 42.1666 26.3083 42.1666 28.4167C42.1666 30.7083 41.3649 32.6566 39.7613 34.2613C38.1565 35.8649 36.2083 36.6667 33.9166 36.6667H11.9166Z" fill="#12BFD9"/>
</svg>
