<svg width="18" height="17" viewBox="0 0 18 17" fill="none" xmlns="http://www.w3.org/2000/svg">
<path d="M17.0632 9.23984L13.4538 12.8492C13.3219 12.9754 13.1465 13.0461 12.964 13.0469C12.8277 13.0466 12.6945 13.0059 12.5814 12.9298C12.4683 12.8537 12.3803 12.7457 12.3287 12.6195C12.2772 12.4933 12.2643 12.3546 12.2917 12.2211C12.3191 12.0876 12.3856 11.9652 12.4827 11.8695L14.9148 9.4375H6.94836C6.76603 9.4375 6.59116 9.36507 6.46223 9.23614C6.3333 9.10721 6.26086 8.93234 6.26086 8.75C6.26086 8.56766 6.3333 8.3928 6.46223 8.26386C6.59116 8.13493 6.76603 8.0625 6.94836 8.0625H14.9148L12.4827 5.63047C12.3528 5.50169 12.2794 5.32658 12.2786 5.14366C12.2778 4.96074 12.3497 4.78499 12.4784 4.65508C12.6072 4.52516 12.7823 4.45173 12.9652 4.45092C13.1482 4.45011 13.3239 4.52201 13.4538 4.65078L17.0632 8.26016C17.1923 8.3905 17.2647 8.56654 17.2647 8.75C17.2647 8.93346 17.1923 9.1095 17.0632 9.23984ZM6.94836 15.625H2.13586V1.875H6.94836C7.1307 1.875 7.30557 1.80257 7.4345 1.67364C7.56343 1.5447 7.63586 1.36984 7.63586 1.1875C7.63586 1.00516 7.56343 0.830295 7.4345 0.701364C7.30557 0.572433 7.1307 0.5 6.94836 0.5H2.13586C1.77119 0.5 1.42145 0.644866 1.16359 0.902728C0.90573 1.16059 0.760864 1.51033 0.760864 1.875V15.625C0.760864 15.9897 0.90573 16.3394 1.16359 16.5973C1.42145 16.8551 1.77119 17 2.13586 17H6.94836C7.1307 17 7.30557 16.9276 7.4345 16.7986C7.56343 16.6697 7.63586 16.4948 7.63586 16.3125C7.63586 16.1302 7.56343 15.9553 7.4345 15.8264C7.30557 15.6974 7.1307 15.625 6.94836 15.625Z" fill="white" fill-opacity="0.7"/>
</svg>
