<svg width="25" height="18" viewBox="0 0 25 18" fill="none" xmlns="http://www.w3.org/2000/svg">
<g clip-path="url(#clip0_45_605)">
<path d="M23.2668 0.249993L23.1957 0.214279C22.8399 0.071422 22.4842 -0.0357208 22.1285 -0.0357208H3.13241C2.77668 -0.0357208 2.45652 0.0357077 2.10079 0.178565L1.99407 0.249993C1.10474 0.714279 0.5 1.64285 0.5 2.64285V15.3571C0.5 16.8214 1.67391 18 3.13241 18H22.1285C23.587 18 24.7609 16.8214 24.7609 15.3571V2.64285C24.7609 1.60714 24.1917 0.714279 23.2668 0.249993ZM22.9111 1.03571L13.8755 9.89285C13.5553 10.2143 13.1285 10.3571 12.7016 10.3571C12.2747 10.3571 11.8478 10.2143 11.5277 9.89285L2.52767 1.03571H22.9111ZM23.7293 15.3571C23.7293 16.25 23.0178 16.9643 22.1285 16.9643H3.13241C2.24308 16.9643 1.53162 16.25 1.53162 15.3571V1.57142L10.7806 10.6428C11.2787 11.1428 11.9545 11.4286 12.7016 11.4286C13.4486 11.4286 14.0889 11.1428 14.6225 10.6428L23.7293 1.74999V15.3571Z" fill="white"/>
</g>
<defs>
<clipPath id="clip0_45_605">
<rect width="24.2609" height="18" fill="white" transform="translate(0.5)"/>
</clipPath>
</defs>
</svg>
