<svg width="19" height="18" viewBox="0 0 19 18" fill="none" xmlns="http://www.w3.org/2000/svg">
<path d="M12.6045 10.3779H6.91722C3.51656 10.3779 0.760864 13.1336 0.760864 16.5342V17.9707H18.7609V16.5342C18.7609 13.1629 16.0052 10.3779 12.6045 10.3779ZM17.7641 17.0033H1.75761V16.5635C1.75761 13.7199 4.07357 11.4039 6.91722 11.4039H12.5752C15.4188 11.4039 17.7348 13.7199 17.7348 16.5635V17.0033H17.7641Z" fill="white"/>
<path d="M9.76084 0C7.38625 0 5.48071 1.90554 5.48071 4.28013C5.48071 6.65472 7.38625 8.56026 9.76084 8.56026C12.1061 8.56026 14.041 6.65472 14.041 4.28013C14.041 1.90554 12.1354 0 9.76084 0ZM9.76084 7.56352C7.94325 7.56352 6.47746 6.09772 6.47746 4.28013C6.47746 2.46254 7.94325 0.996743 9.76084 0.996743C11.5784 0.996743 13.0442 2.46254 13.0442 4.28013C13.0442 6.09772 11.5784 7.56352 9.76084 7.56352Z" fill="white"/>
</svg>
