<svg width="20" height="20" viewBox="0 0 20 20" fill="none" xmlns="http://www.w3.org/2000/svg">
<path d="M10 5.83333C9.55798 5.83333 9.13406 5.65774 8.82149 5.34518C8.50893 5.03262 8.33334 4.60869 8.33334 4.16667C8.33334 3.72464 8.50893 3.30072 8.82149 2.98816C9.13406 2.67559 9.55798 2.5 10 2.5C10.442 2.5 10.866 2.67559 11.1785 2.98816C11.4911 3.30072 11.6667 3.72464 11.6667 4.16667C11.6667 4.60869 11.4911 5.03262 11.1785 5.34518C10.866 5.65774 10.442 5.83333 10 5.83333ZM10 5.83333V17.5M7.50001 17.5H12.5M6.46417 7.7025C6.92848 8.16688 7.47971 8.53526 8.08639 8.78658C8.69308 9.03791 9.34333 9.16727 10 9.16727C10.6567 9.16727 11.3069 9.03791 11.9136 8.78658C12.5203 8.53526 13.0715 8.16688 13.5358 7.7025" stroke="white" stroke-width="1.66667" stroke-linecap="round" stroke-linejoin="round"/>
</svg>
