<svg width="25" height="19" viewBox="0 0 34 19" fill="none" xmlns="http://www.w3.org/2000/svg">
<path fill-rule="evenodd" clip-rule="evenodd" d="M3.63925 4C3.47392 4 3.31928 4.08173 3.22614 4.21833L0.0868863 8.82257C0.0302781 8.90559 0 9.00375 0 9.10424V15.5C0 15.7761 0.223858 16 0.5 16H3.60961C3.83905 16 4.03904 15.8439 4.09468 15.6213L4.40532 14.3787C4.46096 14.1561 4.66095 14 4.89039 14H8.5C8.77614 14 9 13.7761 9 13.5V4.5C9 4.22386 8.77614 4 8.5 4H3.63925ZM4.29016 6C4.11073 6 3.94506 6.09614 3.85604 6.25193L2.42747 8.75193C2.23699 9.08526 2.47768 9.5 2.86159 9.5H6C6.27614 9.5 6.5 9.27614 6.5 9V6.5C6.5 6.22386 6.27614 6 6 6H4.29016Z" fill="white"/>
<rect x="11" width="23" height="14" rx="0.5" fill="white"/>
<rect x="11" y="15" width="12" height="2.5" rx="1" fill="white"/>
<rect x="5" width="8" height="2" rx="0.5" fill="white"/>
<circle cx="27" cy="17" r="2" fill="white"/>
<circle cx="7" cy="17" r="2" fill="white"/>
</svg>
